<?xml version="1.0" encoding="utf-8"?>
<svg viewBox="311.579 299.235 43 47.19" xmlns="http://www.w3.org/2000/svg">
  <path class="cls-1" d="M 341.799 334.575 L 324.469 334.575 C 323.639 334.575 322.969 333.905 322.969 333.075 C 322.969 332.245 323.639 331.575 324.469 331.575 L 341.799 331.575 C 342.629 331.575 343.299 332.245 343.299 333.075 C 343.299 333.905 342.629 334.575 341.799 334.575 Z" style="fill: rgb(48, 51, 54); stroke-width: 0px;"/>
  <path class="cls-1" d="M 341.799 324.525 L 324.469 324.525 C 323.639 324.525 322.969 323.855 322.969 323.025 C 322.969 322.195 323.639 321.525 324.469 321.525 L 341.799 321.525 C 342.629 321.525 343.299 322.195 343.299 323.025 C 343.299 323.855 342.629 324.525 341.799 324.525 Z" style="fill: rgb(48, 51, 54); stroke-width: 0px;"/>
  <path class="cls-1" d="M 331.079 314.505 L 324.469 314.505 C 323.639 314.505 322.969 313.835 322.969 313.005 C 322.969 312.175 323.639 311.505 324.469 311.505 L 331.079 311.505 C 331.909 311.505 332.579 312.175 332.579 313.005 C 332.579 313.835 331.909 314.505 331.079 314.505 Z" style="fill: rgb(48, 51, 54); stroke-width: 0px;"/>
  <path class="cls-1" d="M 323.899 346.425 C 316.419 346.425 311.579 341.495 311.579 333.865 L 311.579 311.795 C 311.579 304.215 316.379 299.285 323.799 299.235 L 342.259 299.235 C 342.259 299.235 342.259 299.235 342.259 299.235 C 349.739 299.235 354.579 304.165 354.579 311.795 L 354.579 333.865 C 354.579 341.445 349.779 346.375 342.359 346.415 L 323.899 346.415 L 323.899 346.425 Z M 342.259 302.235 L 323.809 302.235 C 318.119 302.275 314.579 305.935 314.579 311.795 L 314.579 333.865 C 314.579 339.765 318.149 343.425 323.899 343.425 L 342.359 343.425 C 348.049 343.385 351.589 339.725 351.589 333.865 L 351.589 311.795 C 351.589 305.905 348.019 302.235 342.269 302.235 L 342.259 302.235 Z" style="fill: rgb(48, 51, 54); stroke-width: 0px;"/>
</svg>