<?xml version="1.0" encoding="utf-8"?>
<svg viewBox="129.628 395.338 22.58 18.96" xmlns="http://www.w3.org/2000/svg">
  <path class="cls-1" d="M 143.818 411.288 L 135.028 411.288 C 134.488 411.288 133.988 411.238 133.528 411.138 C 133.298 411.108 133.008 411.028 132.698 410.908 C 131.298 410.388 129.628 409.088 129.628 405.888 L 129.628 400.738 C 129.628 397.308 131.598 395.338 135.028 395.338 L 143.818 395.338 C 146.708 395.338 148.578 396.728 149.078 399.268 C 149.178 399.828 149.218 400.278 149.218 400.738 L 149.218 405.888 C 149.218 409.318 147.248 411.288 143.818 411.288 L 143.818 411.288 Z M 135.028 397.338 C 132.708 397.338 131.628 398.418 131.628 400.738 L 131.628 405.888 C 131.628 407.558 132.208 408.588 133.388 409.028 C 133.568 409.098 133.748 409.138 133.908 409.168 C 134.278 409.248 134.638 409.288 135.028 409.288 L 143.818 409.288 C 146.138 409.288 147.218 408.208 147.218 405.888 L 147.218 400.738 C 147.218 400.388 147.188 400.058 147.108 399.628 C 146.998 399.078 146.648 397.338 143.818 397.338 L 135.028 397.338 Z" style="fill: rgb(198, 124, 78); stroke-width: 0px;"/>
  <path class="cls-1" d="M 146.818 414.288 L 138.028 414.288 C 137.148 414.288 136.358 414.158 135.688 413.908 C 134.128 413.328 133.118 412.098 132.768 410.358 C 132.698 410.028 132.808 409.688 133.048 409.448 C 133.288 409.208 133.638 409.108 133.968 409.188 C 134.278 409.258 134.638 409.298 135.028 409.298 L 143.818 409.298 C 146.138 409.298 147.218 408.218 147.218 405.898 L 147.218 400.748 C 147.218 400.348 147.188 399.998 147.118 399.668 C 147.048 399.338 147.158 398.998 147.388 398.758 C 147.628 398.518 147.968 398.418 148.298 398.488 C 150.818 399.018 152.208 400.888 152.208 403.748 L 152.208 408.898 C 152.208 412.328 150.238 414.298 146.808 414.298 L 146.818 414.288 Z M 135.308 411.288 C 135.578 411.618 135.938 411.868 136.388 412.028 C 136.838 412.198 137.388 412.288 138.028 412.288 L 146.818 412.288 C 149.138 412.288 150.218 411.208 150.218 408.888 L 150.218 403.738 C 150.218 402.498 149.888 401.598 149.218 401.038 L 149.218 405.888 C 149.218 409.318 147.248 411.288 143.818 411.288 L 135.308 411.288 L 135.308 411.288 Z" style="fill: rgb(198, 124, 78); stroke-width: 0px;"/>
  <path class="cls-1" d="M 139.418 406.958 C 137.408 406.958 135.778 405.328 135.778 403.318 C 135.778 401.308 137.408 399.678 139.418 399.678 C 141.428 399.678 143.058 401.308 143.058 403.318 C 143.058 405.328 141.428 406.958 139.418 406.958 Z M 139.418 401.678 C 138.518 401.678 137.778 402.418 137.778 403.318 C 137.778 404.218 138.518 404.958 139.418 404.958 C 140.318 404.958 141.058 404.218 141.058 403.318 C 141.058 402.418 140.318 401.678 139.418 401.678 Z" style="fill: rgb(198, 124, 78); stroke-width: 0px;"/>
  <path class="cls-1" d="M 133.698 406.518 C 133.148 406.518 132.698 406.068 132.698 405.518 L 132.698 401.118 C 132.698 400.568 133.148 400.118 133.698 400.118 C 134.248 400.118 134.698 400.568 134.698 401.118 L 134.698 405.518 C 134.698 406.068 134.248 406.518 133.698 406.518 Z" style="fill: rgb(198, 124, 78); stroke-width: 0px;"/>
  <path class="cls-1" d="M 145.138 406.518 C 144.588 406.518 144.138 406.068 144.138 405.518 L 144.138 401.118 C 144.138 400.568 144.588 400.118 145.138 400.118 C 145.688 400.118 146.138 400.568 146.138 401.118 L 146.138 405.518 C 146.138 406.068 145.688 406.518 145.138 406.518 L 145.138 406.518 Z" style="fill: rgb(198, 124, 78); stroke-width: 0px;"/>
</svg>