<?xml version="1.0" encoding="utf-8"?>
<svg viewBox="80.2639 69.7306 323.717 323.717" xmlns="http://www.w3.org/2000/svg">
  <defs>
    <clipPath id="clippath">
      <rect class="cls-2" width="88" height="88" rx="28" ry="28" style="fill: none; stroke-width: 0px;"/>
    </clipPath>
  </defs>
  <g class="cls-5" style="clip-path: url('#clippath');" transform="matrix(3.6786019802093506, 0, 0, 3.6786019802093506, 80.26386260986328, 69.7306365966797)">
    <g>
      <rect class="cls-3" width="88" height="88" rx="28" ry="28" style="fill: rgb(73, 64, 64); stroke-width: 0px;"/>
      <rect class="cls-1" width="88" height="88" rx="28" ry="28" style="fill: rgb(254, 240, 240); stroke-width: 0px;"/>
    </g>
  </g>
  <g transform="matrix(3.6786019802093506, 0, 0, 3.6786019802093506, 80.26386260986328, 69.7306365966797)" style="">
    <path class="cls-4" d="M64.05,26.35c-.98,1.14-1.82,2.35-2.87,3.31-4.8,4.37-6.68,9.78-6.18,16.19.18,2.28.18,4.63-.17,6.88-.63,4.04-3.11,7.03-6.38,9.3-.63.44-1.9.45-2.65.12-3.77-1.63-5.72-4.81-5.92-8.72-.57-11.24,3.96-20.14,13.15-26.55,3.44-2.4,7.48-2.43,11.03-.52Z" style="fill: rgb(198, 124, 78); stroke-width: 0px;"/>
    <path class="cls-4" d="M50.42,63.82c1.52-1.31,2.59-2.18,3.59-3.12,3.8-3.52,5.31-7.87,4.28-12.95-1.7-8.43,2.49-14.39,8.17-19.7.42-.39,1.89-.24,2.47.2,3.61,2.69,4.82,6.66,4.72,10.88-.22,9.69-4.37,17.4-12.49,22.8-2.96,1.97-6.28,2.8-10.75,1.88Z" style="fill: rgb(198, 124, 78); stroke-width: 0px;"/>
    <path class="cls-4" d="M45.01,32.05c-3.76-4.06-8.73-6.74-14.9-7.97-3.4-.68-6.71-.11-9.65,1.96-1.34.95-1.71,1.77-.74,3.42,4.06,6.9,9.28,11.8,17.86,12.17.57.02,1.13.09,1.66.18,1.21-3.6,3.14-6.85,5.76-9.75Z" style="fill: rgb(198, 124, 78); stroke-width: 0px;"/>
    <path class="cls-4" d="M37.77,53.45c-.15-2.94.05-5.73.6-8.35-1.28-.43-2.65-.75-4.11-.94-6.07-.79-10.85-3.61-13.97-9.02-.89-1.54-1.98-2.97-3.19-4.76-3.39,4.3-3.36,8.57-1.5,12.77,3.9,8.77,10.63,14.56,19.85,17.18,2.01.57,3.99.75,5.86.42-2.21-1.77-3.38-4.32-3.53-7.29Z" style="fill: rgb(198, 124, 78); stroke-width: 0px;"/>
  </g>
</svg>