<?xml version="1.0" encoding="utf-8"?>
<svg viewBox="364.664 280.0775 47 47.0725" xmlns="http://www.w3.org/2000/svg">
  <path class="cls-1" d="M 398.464 327.15 L 377.854 327.15 C 369.964 327.15 364.664 321.61 364.664 313.37 L 364.664 293.94 C 364.664 285.7 369.964 280.16 377.854 280.16 L 386.584 280.16 C 387.414 280.16 388.084 280.83 388.084 281.66 C 388.084 282.49 387.414 283.16 386.584 283.16 L 377.854 283.16 C 371.664 283.16 367.664 287.39 367.664 293.94 L 367.664 313.36 C 367.664 319.91 371.664 324.14 377.854 324.14 L 398.464 324.14 C 404.654 324.14 408.654 319.91 408.654 313.36 L 408.654 303.95 C 408.654 303.12 409.324 302.45 410.154 302.45 C 410.984 302.45 411.654 303.12 411.654 303.95 L 411.654 313.36 C 411.654 321.61 406.354 327.14 398.464 327.14 L 398.464 327.15 Z" style="fill: rgb(48, 51, 54); stroke-width: 0px;"/>
  <path class="cls-1" d="M 387.404 314.44 L 378.654 314.44 C 378.254 314.44 377.864 314.28 377.584 313.99 C 377.304 313.7 377.144 313.31 377.154 312.91 L 377.374 304.08 C 377.414 302.39 378.104 300.8 379.294 299.6 L 396.754 282.14 C 399.514 279.39 403.994 279.39 406.754 282.14 L 409.594 284.98 C 410.934 286.31 411.664 288.09 411.664 289.98 C 411.664 291.87 410.924 293.64 409.594 294.98 L 392.054 312.52 C 390.814 313.76 389.164 314.44 387.404 314.44 L 387.404 314.44 Z M 380.194 311.44 L 387.404 311.44 C 388.354 311.44 389.254 311.07 389.934 310.39 L 407.474 292.85 C 408.244 292.08 408.664 291.06 408.664 289.97 C 408.664 288.88 408.244 287.86 407.474 287.09 L 404.634 284.25 C 403.044 282.67 400.464 282.67 398.884 284.25 L 381.434 301.71 C 380.784 302.36 380.414 303.23 380.394 304.14 L 380.214 311.43 L 380.194 311.44 Z" style="fill: rgb(48, 51, 54); stroke-width: 0px;"/>
  <path class="cls-1" d="M 405.824 298.06 C 405.444 298.06 405.054 297.91 404.764 297.62 L 394.094 286.95 C 393.504 286.36 393.504 285.41 394.094 284.83 C 394.684 284.25 395.634 284.24 396.214 284.83 L 406.884 295.5 C 407.474 296.09 407.474 297.04 406.884 297.62 C 406.594 297.91 406.204 298.06 405.824 298.06 L 405.824 298.06 Z" style="fill: rgb(48, 51, 54); stroke-width: 0px;"/>
</svg>