<?xml version="1.0" encoding="utf-8"?>
<svg viewBox="81.5449 68.4495 323.717 323.717" xmlns="http://www.w3.org/2000/svg">
  <defs>
    <clipPath id="clip-1">
      <rect class="cls-2" width="88" height="88" rx="28" ry="28" style="fill: none; stroke-width: 0px;"/>
    </clipPath>
  </defs>
  <g class="cls-5" style="clip-path: url('#clip-1');" transform="matrix(3.6786019802093506, 0, 0, 3.6786019802093506, 81.54493713378906, 68.44954681396486)">
    <g>
      <rect class="cls-3" width="88" height="88" rx="28" ry="28" style="fill: rgb(73, 64, 64); stroke-width: 0px;"/>
      <rect class="cls-1" width="88" height="88" rx="28" ry="28" style="fill: rgb(254, 240, 240); stroke-width: 0px;"/>
    </g>
  </g>
  <g transform="matrix(3.6786019802093506, 0, 0, 3.6786019802093506, 81.54493713378906, 68.44954681396486)" style="">
    <path class="cls-4" d="M28.3,73.29c-1.34,0-2.43-1.09-2.43-2.43v-38.21c0-.77.21-1.52.6-2.18l6.41-10.65v-3.25c0-1.03.84-1.87,1.87-1.87h18.47c1.03,0,1.87.84,1.87,1.87v3.25l6.41,10.65c.4.66.6,1.41.6,2.18v38.21c0,.64-.25,1.24-.69,1.69l-.02.02h0c-.46.46-1.07.71-1.71.71h-31.39ZM49.23,72.01h10.64l-5.39-4.54-5.24,4.54ZM27.58,31.14c-.28.46-.42.98-.42,1.51v38.21c0,.63.51,1.15,1.15,1.15h18.75l-.14-.63c-.04-.17-.05-.34-.05-.51v-38.56h-15.69c-.35,0-.64-.29-.64-.64s.29-.64.64-.64h16l.15-.29c.04-.08.09-.17.14-.25l5.87-9.84h-19.44l-6.32,10.49ZM48.56,31.15c-.27.45-.41.98-.41,1.5v38.6l5.68-4.91v-9.15c0-.35.29-.64.64-.64s.64.29.64.64v9.14l5.73,4.82v-38.5c0-.53-.15-1.06-.42-1.51l-5.31-8.83v25.55c0,.35-.29.64-.64.64s-.64-.29-.64-.64v-25.53l-5.26,8.81ZM34.77,15.99c-.33,0-.59.26-.59.59v2.79h19.65v-2.79c0-.33-.26-.59-.59-.59h-18.47Z" style="fill: rgb(198, 124, 78); stroke-width: 0px;"/>
    <path class="cls-4" d="M36.98,53.29c-2.88,0-5.23-2.34-5.23-5.23v-.15c0-2.88,2.34-5.23,5.23-5.23s5.23,2.34,5.23,5.23v.15c0,2.88-2.34,5.23-5.23,5.23ZM36.98,43.96c-2.17,0-3.94,1.77-3.94,3.94v.15c0,2.17,1.77,3.94,3.94,3.94s3.94-1.77,3.94-3.94v-.15c0-2.17-1.77-3.94-3.94-3.94Z" style="fill: rgb(198, 124, 78); stroke-width: 0px;"/>
    <path class="cls-4" d="M32.39,59.07c-.35,0-.64-.29-.64-.64s.29-.64.64-.64h7.06c.35,0,.64.29.64.64s-.29.64-.64.64h-7.06Z" style="fill: rgb(198, 124, 78); stroke-width: 0px;"/>
    <path class="cls-4" d="M32.39,62.61c-.35,0-.64-.29-.64-.64s.29-.64.64-.64h9.24c.35,0,.64.29.64.64s-.29.64-.64.64h-9.24Z" style="fill: rgb(198, 124, 78); stroke-width: 0px;"/>
    <path class="cls-4" d="M32.39,66.11c-.35,0-.64-.29-.64-.64s.29-.64.64-.64h8.18c.35,0,.64.29.64.64s-.29.64-.64.64h-8.18Z" style="fill: rgb(198, 124, 78); stroke-width: 0px;"/>
    <path class="cls-4" d="M54.49,53.29c-.36,0-.65-.29-.65-.65s.29-.65.65-.65.65.29.65.65-.29.65-.65.65Z" style="fill: rgb(198, 124, 78); stroke-width: 0px;"/>
  </g>
</svg>