<?xml version="1.0" encoding="utf-8"?>
<svg viewBox="116.953 209.429 63.631 56.42" xmlns="http://www.w3.org/2000/svg">
  <path class="cls-1" d="M 148.343 238.122 L 148.343 235.259 L 136.54 235.259 L 136.54 244.805 L 141.761 244.805 C 144.018 244.805 145.847 246.634 145.847 248.891 L 145.847 251.296 C 145.847 252.685 146.974 253.812 148.363 253.812 L 152.454 253.812 L 152.454 244.717 C 152.454 241.821 150.776 239.325 148.346 238.124 L 148.343 238.122 Z" style="fill: rgb(198, 124, 78); stroke-width: 0px;"/>
  <path class="cls-1" d="M 137.275 251.236 C 133.239 251.236 129.968 254.506 129.968 258.542 C 129.968 262.578 133.239 265.849 137.275 265.849 C 141.311 265.849 144.582 262.578 144.582 258.542 C 144.582 254.506 141.311 251.236 137.275 251.236 Z M 137.275 262.221 C 135.242 262.221 133.597 260.573 133.597 258.542 C 133.597 256.512 135.245 254.864 137.275 254.864 C 139.306 254.864 140.954 256.512 140.954 258.542 C 140.954 260.573 139.306 262.221 137.275 262.221 Z" style="fill: rgb(198, 124, 78); stroke-width: 0px;"/>
  <path class="cls-1" d="M 173.277 251.236 C 169.241 251.236 165.971 254.506 165.971 258.542 C 165.971 262.578 169.241 265.849 173.277 265.849 C 177.313 265.849 180.584 262.578 180.584 258.542 C 180.584 254.506 177.313 251.236 173.277 251.236 Z M 173.277 262.221 C 171.244 262.221 169.599 260.573 169.599 258.542 C 169.599 256.512 171.247 254.864 173.277 254.864 C 175.308 254.864 176.956 256.512 176.956 258.542 C 176.956 260.573 175.308 262.221 173.277 262.221 Z" style="fill: rgb(198, 124, 78); stroke-width: 0px;"/>
  <path class="cls-1" d="M 168.821 230.373 L 169.332 230.373 C 169.953 230.373 170.457 230.876 170.457 231.497 L 170.457 236.761 C 170.457 237.382 169.953 237.885 169.332 237.885 L 168.821 237.885 C 166.748 237.885 165.065 236.205 165.065 234.129 C 165.065 232.056 166.745 230.373 168.821 230.373 Z" style="fill: rgb(198, 124, 78); stroke-width: 0px;"/>
  <path class="cls-1" d="M 127.234 257.699 L 166.343 257.699 C 166.343 254.031 170.965 249.862 174.18 249.862 L 163.341 230.851 L 158.946 230.851 L 162.795 249.037 C 162.969 249.857 162.76 250.71 162.229 251.356 C 161.706 251.993 160.926 252.363 160.101 252.363 L 148.363 252.363 C 146.974 252.363 145.847 251.238 145.847 249.847 L 145.847 247.441 C 145.847 245.184 144.018 243.355 141.761 243.355 L 135.841 243.355 C 131.83 243.355 128.245 245.849 126.846 249.605 L 125.019 254.511 C 124.446 256.054 125.586 257.697 127.231 257.697 L 127.234 257.699 Z" style="fill: rgb(198, 124, 78); stroke-width: 0px;"/>
  <path class="cls-1" d="M 162.068 229.026 L 159.396 229.026 L 159.396 232.282 C 160.526 232.35 162.285 232.556 163.18 232.972 C 163.56 233.148 163.998 232.884 163.998 232.463 L 163.998 230.956 C 163.998 229.892 163.135 229.026 162.068 229.026 Z" style="fill: rgb(198, 124, 78); stroke-width: 0px;"/>
  <path class="cls-1" d="M 180.035 253.618 C 179.034 251.515 177.132 249.829 174.583 249.208 C 171.274 248.4 167.727 249.819 165.895 252.69 C 164.604 254.71 164.318 256.995 164.828 259.055 C 164.936 259.491 165.51 259.599 165.787 259.244 C 168.982 255.163 174.296 253.223 179.414 254.376 C 179.854 254.476 180.231 254.026 180.038 253.618 L 180.035 253.618 Z" style="fill: rgb(198, 124, 78); stroke-width: 0px;"/>
  <path class="cls-1" d="M 149.007 229.497 C 149.007 232.222 151.216 234.431 153.941 234.431 L 158.168 234.431 C 159.248 234.431 160.121 233.558 160.121 232.478 L 160.121 229.026 L 156.92 229.026 C 156.05 229.026 155.285 228.475 154.991 227.658 C 154.183 225.418 151.632 222.799 148.444 222.799 C 142.664 222.809 137.985 227.497 137.985 233.274 L 137.985 237.357 L 145.092 237.357 C 146.247 237.357 147.339 237.624 148.313 238.097 C 148.283 236.59 149.236 235.085 151.166 233.578" style="fill: rgb(198, 124, 78); stroke-width: 0px;"/>
  <path class="cls-1" d="M 159.16 216.693 C 159.16 220.703 155.906 223.957 151.896 223.957 C 147.885 223.957 143.9 218.535 143.9 214.524 C 143.9 210.513 147.885 209.429 151.896 209.429 C 155.906 209.429 159.16 212.682 159.16 216.693 Z" style="fill: rgb(198, 124, 78); stroke-width: 0px;"/>
  <path class="cls-1" d="M 153.207 223.836 C 156.216 223.287 158.581 220.882 159.067 217.85 L 153.584 216.534 C 152.379 216.245 151.312 217.367 151.662 218.555 L 153.209 223.836 L 153.207 223.836 Z" style="fill: rgb(198, 124, 78); stroke-width: 0px;"/>
  <path class="cls-1" d="M 120.068 226.676 L 134.872 226.676 C 136.591 226.676 137.987 228.07 137.987 229.791 L 137.987 243.358 L 120.068 243.358 C 118.349 243.358 116.953 241.964 116.953 240.243 L 116.953 229.791 C 116.953 228.07 118.347 226.676 120.068 226.676 Z" style="fill: rgb(198, 124, 78); stroke-width: 0px;"/>
</svg>