<?xml version="1.0" encoding="utf-8"?>
<svg viewBox="157.3587 189.384 43.9817 43.985" xmlns="http://www.w3.org/2000/svg">
  <path class="cls-1" d="M 197.82 205.099 L 199.4 206.679 C 200.65 207.909 201.34 209.579 201.34 211.349 C 201.36 213.109 200.68 214.779 199.45 216.039 C 199.44 216.059 199.42 216.069 199.41 216.079 C 199.41 216.079 199.4 216.089 199.39 216.099 L 197.83 217.659 C 197.21 218.279 196.86 219.109 196.86 219.989 L 196.86 222.249 C 196.86 225.899 193.89 228.879 190.24 228.879 L 187.97 228.879 C 187.09 228.879 186.25 229.229 185.64 229.849 L 184.06 231.429 C 182.76 232.729 181.07 233.369 179.37 233.369 C 177.67 233.369 175.98 232.729 174.68 231.459 L 173.07 229.849 C 172.45 229.229 171.62 228.879 170.74 228.879 L 168.47 228.879 C 164.82 228.879 161.85 225.909 161.85 222.249 L 161.85 219.989 C 161.85 219.109 161.5 218.269 160.88 217.629 L 159.3 216.069 C 156.73 213.499 156.7 209.289 159.28 206.699 L 160.89 205.089 C 161.51 204.469 161.86 203.639 161.86 202.739 L 161.86 200.499 C 161.86 196.849 164.83 193.879 168.48 193.879 L 170.75 193.879 C 171.63 193.879 172.47 193.529 173.08 192.909 L 174.66 191.329 C 177.24 188.739 181.44 188.739 184.04 191.309 L 185.65 192.909 C 186.27 193.529 187.1 193.879 187.98 193.879 L 190.25 193.879 C 193.9 193.879 196.87 196.849 196.87 200.499 L 196.87 202.769 C 196.87 203.649 197.22 204.479 197.84 205.099 L 197.82 205.099 Z M 173.68 218.969 C 174.21 218.969 174.69 218.769 175.04 218.399 L 186.35 207.089 C 187.1 206.339 187.1 205.109 186.35 204.359 C 185.6 203.609 184.39 203.609 183.64 204.359 L 172.33 215.669 C 171.58 216.419 171.58 217.649 172.33 218.399 C 172.68 218.769 173.17 218.969 173.67 218.969 L 173.68 218.969 Z M 183.07 217.029 C 183.07 218.109 183.93 218.969 185.01 218.969 C 186.09 218.969 186.92 218.109 186.92 217.029 C 186.92 215.949 186.06 215.119 185.01 215.119 C 183.96 215.119 183.07 215.979 183.07 217.029 Z M 173.7 203.809 C 174.76 203.809 175.61 204.669 175.61 205.719 C 175.61 206.769 174.75 207.659 173.7 207.659 C 172.65 207.659 171.76 206.799 171.76 205.719 C 171.76 204.639 172.64 203.809 173.7 203.809 Z" style="fill: rgb(198, 124, 78); fill-rule: evenodd; stroke-width: 0px;"/>
</svg>