<?xml version="1.0" encoding="utf-8"?>
<svg viewBox="174.8608 322.1075 16.6644 16.5338" xmlns="http://www.w3.org/2000/svg">
  <path class="cls-1" d="M 184.628 323.3 L 186.098 326.23 C 186.298 326.64 186.828 327.03 187.278 327.11 L 189.938 327.55 C 191.638 327.83 192.038 329.07 190.818 330.28 L 188.748 332.35 C 188.398 332.7 188.208 333.37 188.318 333.86 L 188.908 336.42 C 189.378 338.44 188.298 339.23 186.508 338.17 L 184.018 336.69 C 183.568 336.42 182.828 336.42 182.368 336.69 L 179.878 338.17 C 178.098 339.23 177.008 338.44 177.478 336.42 L 178.068 333.86 C 178.178 333.38 177.988 332.7 177.638 332.35 L 175.568 330.28 C 174.348 329.06 174.748 327.83 176.448 327.55 L 179.108 327.11 C 179.548 327.04 180.078 326.64 180.288 326.23 L 181.758 323.3 C 182.558 321.71 183.858 321.71 184.648 323.3 L 184.628 323.3 Z" style="fill: rgb(251, 190, 33); stroke-width: 0px;"/>
</svg>